# xmcd
#
# Track frame offsets: 
#        150
#        14233
#        28765
#        43790
#        57690
#        68938
#        80796
#        95408
#        105870
#        119269
#        130022
#        143725
#        157454
#        170395
#        183536
#        197195
#        208188
#        219896
#        233981
#        247346
#        260223
#        272767
#        283310
#        295766
#        308440
#        321542
#        335500
#
# Disc length: 4610 seconds
#
# Revision: 0
# Processed by: cddbd v1.5.2PL0 Copyright (c) Steve Scherf et al.
# Submitted via: ExactAudioCopyFreeDBPlugin 1.0
#
DISCID=b912001b
DTITLE=Joe Liggins and His Honeydrippers - The Greatest Hits 1945-1957
DYEAR=2016
DGENRE=R&B
TTITLE0=The Honeydripper (Part 1)
TTITLE1=The Honeydripper (Part 2)
TTITLE2=I've Got A Right To Cry
TTITLE3=Tanya
TTITLE4=Blow Mr Jackson
TTITLE5=Sweet Georgia Brown
TTITLE6=Dripper's Blues
TTITLE7=Roll 'Em
TTITLE8=Sweet And Lovely
TTITLE9=The Darktown Strutters' Ball
TTITLE10=Rag Mop
TTITLE11=Pink Champagne
TTITLE12=Little Joe's Boogie
TTITLE13=Frankie Lee
TTITLE14=Bob Is My Guy
TTITLE15=One Sweet Letter
TTITLE16=Whiskey Gin And Wine
TTITLE17=Louisiana Woman
TTITLE18=Cryin' Over You
TTITLE19=Everyone's Down On Me
TTITLE20=Tears On My Pillow
TTITLE21=Do You Love Me Pretty Baby
TTITLE22=Whiskey, Women And Loaded Dice
TTITLE23=They Were Doing The Mambo
TTITLE24=Yeah, Yeah, Yeah
TTITLE25=Honeydrippin' Daddy
TTITLE26=Go Ahead
EXTD=
EXTT0=
EXTT1=
EXTT2=
EXTT3=
EXTT4=
EXTT5=
EXTT6=
EXTT7=
EXTT8=
EXTT9=
EXTT10=
EXTT11=
EXTT12=
EXTT13=
EXTT14=
EXTT15=
EXTT16=
EXTT17=
EXTT18=
EXTT19=
EXTT20=
EXTT21=
EXTT22=
EXTT23=
EXTT24=
EXTT25=
EXTT26=
PLAYORDER=
